<?xml version="1.0" encoding="UTF-8" standalone="no"?>
<!DOCTYPE svg PUBLIC "-//W3C//DTD SVG 1.1//EN" "http://www.w3.org/Graphics/SVG/1.1/DTD/svg11.dtd">
<svg width="100%" height="100%" viewBox="0 0 683 683" version="1.1" xmlns="http://www.w3.org/2000/svg" xmlns:xlink="http://www.w3.org/1999/xlink" xml:space="preserve" xmlns:serif="http://www.serif.com/" style="fill-rule:evenodd;clip-rule:evenodd;stroke-miterlimit:10;">
    <g transform="matrix(0.133333,0,0,-0.133333,0,682.667)">
        <g id="g10">
            <g id="g12">
                <g id="g14">
                    <g id="g16">
                        <g>
                            <clipPath id="_clip1">
                                <path d="M2560,0C3973.85,0 5120,1146.15 5120,2560C5120,3973.85 3973.85,5120 2560,5120C1146.15,5120 0,3973.85 0,2560C0,1146.15 1146.15,0 2560,0Z"/>
                            </clipPath>
                            <g clip-path="url(#_clip1)">
                                <g id="g22">
                                    <g>
                                        <clipPath id="_clip2">
                                            <rect x="0" y="0" width="5120" height="5120"/>
                                        </clipPath>
                                        <g clip-path="url(#_clip2)">
                                            <path id="path28" d="M2560,0C3973.85,0 5120,1146.15 5120,2560C5120,3973.85 3973.85,5120 2560,5120C1146.15,5120 0,3973.85 0,2560C0,1146.15 1146.15,0 2560,0Z" style="fill:none;fill-rule:nonzero;stroke:rgb(66,66,66);stroke-width:320px;"/>
                                        </g>
                                    </g>
                                </g>
                            </g>
                        </g>
                    </g>
                </g>
                <g id="g30">
                    <g id="g32">
                        <g>
                            <clipPath id="_clip3">
                                <path d="M3057.78,1754.95L1189.97,1754.95L2062.2,3365.05L3930.03,3365.05L3057.78,1754.95"/>
                            </clipPath>
                            <g clip-path="url(#_clip3)">
                                <g id="g38">
                                    <rect id="path44" x="1139.97" y="1704.95" width="2840.06" height="1710.1" style="fill:rgb(66,66,66);stroke:rgb(66,66,66);stroke-width:7.5px;stroke-linejoin:round;stroke-miterlimit:2;"/>
                                </g>
                            </g>
                        </g>
                    </g>
                </g>
            </g>
        </g>
    </g>
</svg>
