<?xml version="1.0" encoding="UTF-8" standalone="no"?>
<!DOCTYPE svg PUBLIC "-//W3C//DTD SVG 1.1//EN" "http://www.w3.org/Graphics/SVG/1.1/DTD/svg11.dtd">
<svg width="100%" height="100%" viewBox="0 0 24 24" version="1.1" xmlns="http://www.w3.org/2000/svg" xmlns:xlink="http://www.w3.org/1999/xlink" xml:space="preserve" xmlns:serif="http://www.serif.com/" style="fill-rule:evenodd;clip-rule:evenodd;stroke-linejoin:round;stroke-miterlimit:2;">
    <path d="M7,17.939L6,17.939L6,9.871C6.308,9.64 6.639,9.442 7,9.305L7,17.939ZM10,17.939L11,17.939L11,8.715C10.771,8.98 10.557,9.263 10.379,9.572L10,9.388L10,17.939ZM8,17.939L9,17.939L9,9.091C8.492,9.012 8.377,9.041 8,9.081L8,17.939ZM4,17.939L5,17.939L5,10.919C4.688,11.377 4.445,11.89 4.308,12.454L4,12.272L4,17.939ZM1,12.689C0.394,13.236 0,14.043 0,14.957C0,15.871 0.394,16.678 1,17.225L1,12.689ZM19.879,12.018C19.675,9.181 17.475,6.939 14.762,6.939C13.74,6.939 12.798,7.267 12,7.816L12,17.939L21.089,17.939C22.696,17.939 24,16.546 24,14.833C24,12.6 21.832,11.061 19.879,12.018ZM3,11.991C2.698,11.967 2.474,11.961 2,12.113L2,17.802C2.446,17.945 2.636,17.94 3,17.94L3,11.991Z" style="fill:rgb(66,66,66);fill-rule:nonzero;"/>
</svg>
